<svg id="e07c9319-842b-449a-9f57-029d5804b779" xmlns="http://www.w3.org/2000/svg" xmlns:xlink="http://www.w3.org/1999/xlink" viewBox="0 0 1104.5063 621.4409"><defs><style>.cls-1{fill:url(#radial-gradient);}.cls-2{opacity:0.1;isolation:isolate;}.cls-3{fill:#b94dff;}.cls-4{fill:#fff;}.cls-5{fill:#c05fff;}.cls-6{fill:#aaa;}.cls-7{fill:#0073a5;}.cls-8{fill:#ac43ef;}.cls-9{fill:#ffb9b9;}.cls-10{fill:#d0cde1;}.cls-11{fill:#2f2e41;}</style><radialGradient id="radial-gradient" cx="490.5882" cy="374.9787" r="388.2141" gradientUnits="userSpaceOnUse"><stop offset="0" stop-color="#901bcf"/><stop offset="0.1292" stop-color="#871eca"/><stop offset="0.34" stop-color="#6f26bc"/><stop offset="0.6061" stop-color="#4733a5"/><stop offset="0.9143" stop-color="#104586"/><stop offset="1" stop-color="#004a7c"/></radialGradient></defs><g id="Background"><rect class="cls-1" y="128.5165" width="981.1765" height="492.9244"/><rect class="cls-2" x="275.6639" y="271.0208" width="367.9412" height="252.3025"/><circle class="cls-3" cx="29.2017" cy="147.2056" r="11.6807"/><circle class="cls-3" cx="65.4118" cy="147.2056" r="11.6807"/><circle class="cls-3" cx="101.6219" cy="147.2056" r="11.6807"/><rect class="cls-3" x="113.3025" y="311.9031" width="23.3613" height="23.3613"/><rect class="cls-4" x="824.6555" y="515.1468" width="23.3613" height="23.3613"/><rect class="cls-5" x="816.479" y="357.4576" width="23.3613" height="23.3613" transform="translate(-112.0857 603.0881) rotate(-38.9769)"/><path class="cls-4" d="M339.905,252.3283v270.99h429.85v-270.99Zm427.52,268.66H342.245v-266.32h425.18Z" transform="translate(-64.2437)"/></g><path class="cls-6" d="M1040.75,256a128,128,0,1,1,128-128A128,128,0,0,1,1040.75,256Zm0-254a126,126,0,1,0,126,126A126,126,0,0,0,1040.75,2Z" transform="translate(-64.2437)"/><circle class="cls-7" cx="976.9356" cy="128.3673" r="64.2729"/><circle class="cls-8" cx="1064.905" cy="38.0284" r="25.9165"/><g id="Boy"><ellipse class="cls-9" cx="541.1024" cy="332.0536" rx="2.9484" ry="3.9312"/><polygon class="cls-9" points="492.945 343.847 489.014 383.159 528.981 389.056 531.929 366.452 534.878 343.847 492.945 343.847"/><polygon class="cls-2" points="492.945 343.847 489.014 383.159 528.981 389.056 531.929 366.452 534.878 343.847 492.945 343.847"/><path class="cls-10" d="M644.715,523.3183h-28.41l-.19-2.33-2.07-25.97v-.01l-2.15-27,13.11-55.69,11.14,11.14v53.07s6.55,9.83,5.24,12.45-2.62,2.62-1.31,4.58c1.31,1.97,2.62,3.28,1.31,4.59a4.92,4.92,0,0,0,0,5.9c1.31,1.31,3.93,3.27,1.96,5.24-1.96,1.96-4.58.65-1.96,7.86a23.0132,23.0132,0,0,0,1.8,3.84A25.5249,25.5249,0,0,0,644.715,523.3183Z" transform="translate(-64.2437)"/><circle class="cls-9" cx="514.8944" cy="325.174" r="31.4496"/><path class="cls-10" d="M499.665,523.3183c-.11-.23-.23-.47-.35-.73-.23-.49-.48-1.02-.75-1.6-1.74-3.88-3.87-9.4-2.64-11.05,1.97-2.62,2.62-5.24,1.31-6.55s-5.24,1.31-1.31-1.97c3.93-3.27,5.24-1.31,3.93-5.24s-3.93-1.96-1.31-3.93c2.62-1.96,4.59-1.31,3.28-3.27-1.31-1.97-3.93-1.97-1.31-3.28s4.59,0,3.93-3.28c-.66-3.27-1.31-1.96,0-3.27.34-.34,1.53-3.64,3.12-8.35,4.45-13.31,11.95-37.86,11.95-38.83,0-1.31-10.48-42.58-10.48-42.58l-4.59-2.63s-20.31,13.76-26.86,44.56c-6.56,30.79-11.14,38.66-11.14,38.66s-6.55,1.31-1.97,5.89c4.59,4.59,4.59,3.93.66,6.55s-6.55-2.62-3.93,2.62c2.62,5.25,5.89,3.94,3.27,7.21-2.62,3.28-7.2,3.28-4.58,5.9s-2.62,8.52.65,11.14c3.28,2.62,4.59,3.27,4.59,7.86a24.27,24.27,0,0,0,.31,3.84,19.6082,19.6082,0,0,0,.48,2.33c.15.61.3,1.07.4,1.36Z" transform="translate(-64.2437)"/><path class="cls-10" d="M513.615,495.5283l-5.89-20.31-.16-4.42-3.12-84.04,38.66-13.75,6.55-5.25s1.31-15.07,3.28-16.38c.71-.47,1.85.08,3.36,1.36,2.65,2.25,6.45,6.74,11.05,11.75,7.21,7.86,22.28,6.55,26.86,3.93a15.4831,15.4831,0,0,1,1.83-.91c3.29-1.36,4.72-.4,4.72-.4,3.28,2.62-4.58,11.14-4.58,11.14s2.62,5.89,19.65,11.79c17.04,5.9,20.32,33.42,20.32,33.42s-20.32,55.03-19.66,58.96c.56,3.37-1.76,10.59-2.44,12.59v.01c-.11.32-.18.51-.18.51l1.49,25.46.14,2.33h-99.11a13.476,13.476,0,0,0-1.11-2.33c-.11-.18-.23-.37-.35-.56C509.035,511.2483,513.615,495.5283,513.615,495.5283Z" transform="translate(-64.2437)"/><path class="cls-11" d="M547.47,329.2027s-3.2658-4.8989-2.01-10.1745a30.8371,30.8371,0,0,0,.8792-9.17s2.6379-8.5415,5.2757-13.3147,1.3817-6.783,9.672-8.29,4.8988-12.31,26.7551-.628a6.41,6.41,0,0,0,6.6574,2.5122c4.5219-.8793,6.1549,5.4012,6.1549,5.4012s3.0147-1.7585,4.1452.7537,9.1912-1.5078,9.1912,15.45-9.1728,32.1048-9.1728,32.1048.6724-28.5244-14.2753-31.4135-31.0259-11.305-34.92-.5024A82.35,82.35,0,0,1,547.47,329.2027Z" transform="translate(-64.2437)"/></g></svg>